<svg width="16" height="16" viewBox="0 0 16 16" fill="none" xmlns="http://www.w3.org/2000/svg">
<path d="M15.5564 7.97331C15.0811 7.48931 14.9751 6.75397 15.2944 6.15531C15.5224 5.72864 15.5384 5.22131 15.3371 4.78064C15.1364 4.34064 14.7417 4.01931 14.2697 3.91264C13.6091 3.76264 13.1217 3.20131 13.0677 2.52531C13.0284 2.04331 12.7671 1.60664 12.3597 1.34531C11.9537 1.08331 11.4484 1.02664 10.9931 1.19264C10.3557 1.42397 9.64239 1.21397 9.23172 0.675308C8.93839 0.291308 8.48239 0.0653076 7.99839 0.0653076C7.51506 0.0653076 7.05906 0.291308 6.76572 0.675308C6.35706 1.21464 5.64372 1.42464 5.00639 1.19331C4.55172 1.02797 4.04639 1.08464 3.63972 1.34597C3.23306 1.60731 2.97105 2.04397 2.93239 2.52597C2.87772 3.20197 2.39105 3.76397 1.73039 3.91331C1.25839 4.01997 0.863721 4.34131 0.663054 4.78131C0.462387 5.22131 0.478387 5.72931 0.706387 6.15531C1.02572 6.75331 0.919721 7.48931 0.445054 7.97331C0.10572 8.31797 -0.0529464 8.80131 0.0157203 9.27997C0.084387 9.75864 0.373054 10.178 0.795721 10.4133C1.38772 10.7433 1.69705 11.42 1.55839 12.0833C1.46039 12.5566 1.58772 13.0486 1.90439 13.414C2.22172 13.78 2.69105 13.9766 3.17239 13.946C3.84972 13.904 4.47439 14.306 4.71706 14.9386C4.88972 15.3906 5.26372 15.7353 5.72839 15.8713C6.19172 16.0073 6.69306 15.9193 7.08239 15.6333C7.62839 15.2313 8.37306 15.2313 8.91839 15.6333C9.30772 15.92 9.80906 16.008 10.2724 15.8713C10.7371 15.7353 11.1111 15.39 11.2844 14.9386C11.5264 14.306 12.1517 13.9033 12.8284 13.946C13.3111 13.9766 13.7797 13.78 14.0964 13.414C14.4131 13.0486 14.5411 12.5566 14.4424 12.0833C14.3044 11.42 14.6131 10.7433 15.2057 10.4133C15.6277 10.1773 15.9157 9.75864 15.9851 9.27997C16.0544 8.80131 15.8951 8.31797 15.5564 7.97331ZM7.16706 11.5933L4.16706 8.68397L5.40506 7.44597L7.16706 9.11664L10.9291 5.26064L12.1671 6.49864L7.16706 11.5933Z" fill="#F8765E"/>
</svg>
